<?xml version="1.0" standalone="no"?><!DOCTYPE svg PUBLIC "-//W3C//DTD SVG 1.1//EN" "http://www.w3.org/Graphics/SVG/1.1/DTD/svg11.dtd"><svg t="1611278785817" class="icon" viewBox="0 0 1024 1024" version="1.1" xmlns="http://www.w3.org/2000/svg" p-id="932" xmlns:xlink="http://www.w3.org/1999/xlink" width="200" height="200"><defs><style type="text/css"></style></defs><path d="M751.81056 325.19168H277.4016a43.47392 43.47392 0 0 1-43.45856-43.45856 43.47392 43.47392 0 0 1 43.45856-43.45856h474.40384a43.47392 43.47392 0 0 1 43.45856 43.45856 43.47392 43.47392 0 0 1-43.45856 43.45856z m0 222.47936h-109.17376a43.47392 43.47392 0 0 1-43.45856-43.45856 43.47392 43.47392 0 0 1 43.45856-43.45856h109.17376a43.47392 43.47392 0 0 1 43.45856 43.45856 43.47392 43.47392 0 0 1-43.45856 43.45856z m0 222.43328h-109.17376a43.47392 43.47392 0 0 1-43.45856-43.45856 43.47392 43.47392 0 0 1 43.45856-43.45856h109.17376a43.47392 43.47392 0 0 1 43.45856 43.45856 43.47392 43.47392 0 0 1-43.45856 43.45856z m-430.8992-86.91712h127.68256V497.35168H320.91136v185.83552z m171.05408 86.91712H277.44768a43.4176 43.4176 0 0 1-43.45856-43.45856V453.89312a43.4176 43.4176 0 0 1 43.45856-43.45856h214.51776a43.4176 43.4176 0 0 1 43.45856 43.45856v272.75264a43.4176 43.4176 0 0 1-43.45856 43.45856z m-353.8432 115.77856h747.76064V138.11712H138.11712v747.76576zM929.33632 972.8H94.65856A43.47392 43.47392 0 0 1 51.2 929.34144V94.65856A43.47392 43.47392 0 0 1 94.65856 51.2h834.68288A43.47392 43.47392 0 0 1 972.8 94.65856v834.68288a43.47392 43.47392 0 0 1-43.45856 43.45856z" fill="#e6e6e6" p-id="933"></path></svg>